<?xml version="1.0" standalone="no"?>
<!DOCTYPE svg PUBLIC "-//W3C//DTD SVG 20010904//EN"
 "http://www.w3.org/TR/2001/REC-SVG-20010904/DTD/svg10.dtd">
<svg version="1.0" xmlns="http://www.w3.org/2000/svg"
 width="640.000000pt" height="640.000000pt" viewBox="0 0 640.000000 640.000000"
 preserveAspectRatio="xMidYMid meet">
<metadata>
Created by potrace 1.14, written by Peter Selinger 2001-2017
</metadata>
<g transform="translate(0.000000,640.000000) scale(0.100000,-0.100000)"
fill="#000000" stroke="none">
<path d="M1770 5050 c0 -1329 0 -1339 20 -1350 21 -11 28 -50 9 -50 -6 0 -36
-25 -66 -55 -30 -30 -61 -55 -69 -55 -13 0 -46 -60 -49 -90 -1 -8 -3 -21 -4
-28 0 -7 -12 -17 -25 -23 -16 -7 -26 -22 -29 -43 -11 -66 -20 -92 -39 -112
-15 -17 -20 -42 -25 -115 -4 -73 -10 -98 -24 -112 -17 -16 -19 -36 -19 -222 0
-112 3 -210 6 -219 4 -11 19 -16 50 -16 24 0 44 -5 44 -11 0 -158 8 -271 21
-286 8 -10 23 -36 33 -58 11 -22 23 -48 27 -57 5 -10 9 -78 9 -151 0 -126 1
-136 24 -168 14 -19 32 -49 42 -67 17 -34 29 -44 54 -49 66 -10 106 -24 117
-39 11 -15 12 -147 9 -714 -2 -382 -7 -732 -11 -777 l-7 -83 41 0 41 0 0 69
c0 39 5 73 10 76 7 4 10 255 10 721 l0 714 90 2 c50 1 100 2 113 2 20 1 23 -5
29 -59 3 -33 11 -80 18 -105 6 -25 15 -70 20 -100 4 -30 12 -80 18 -110 6 -35
10 -268 9 -632 l-2 -578 33 0 32 0 0 540 0 540 78 0 c43 0 82 -4 88 -9 12 -11
103 -21 109 -11 7 12 55 18 61 9 8 -13 601 -11 609 1 4 6 109 10 282 10 275 0
276 0 258 -20 -10 -11 -24 -20 -31 -20 -7 0 -14 -4 -16 -8 -4 -11 -186 -132
-197 -132 -25 0 -31 -30 -24 -106 8 -77 8 -78 41 -86 32 -8 32 -9 32 -70 0
-33 4 -111 10 -172 5 -61 15 -211 21 -333 l12 -223 163 0 163 0 -5 123 c-3 67
-9 197 -14 289 -6 91 -10 198 -10 236 l0 70 49 36 c27 20 54 36 60 36 14 0 15
-276 1 -285 -6 -4 -10 -85 -10 -211 0 -197 1 -204 20 -204 19 0 20 7 20 180 0
171 1 182 22 211 18 24 23 49 29 132 3 56 12 120 20 142 l14 40 81 3 81 3 7
-98 c3 -54 8 -192 11 -308 3 -116 8 -252 11 -303 l6 -92 119 0 119 0 -4 33
c-5 34 -20 549 -21 682 l0 80 745 3 c410 1 750 4 757 6 30 12 122 213 181 396
32 101 79 307 71 315 -3 2 -94 5 -202 5 -143 1 -197 5 -197 13 0 7 -10 0 -21
-15 -11 -16 -27 -28 -34 -28 -9 0 -6 9 10 26 24 26 29 42 40 140 9 81 -35 105
-92 50 -19 -19 -20 -27 -12 -71 5 -28 14 -51 19 -53 18 -6 10 -59 -16 -110
-27 -51 -81 -88 -119 -80 -29 5 -30 28 -3 28 25 0 57 28 77 67 16 31 14 125
-4 149 -10 15 -13 39 -10 80 4 49 0 68 -22 114 -29 60 -28 58 -75 114 l-32 38
25 19 c24 18 24 19 2 19 -12 0 -25 -5 -28 -10 -4 -6 -10 -8 -15 -5 -5 3 -11 1
-14 -4 -3 -5 -21 -6 -40 -1 -19 4 -37 6 -40 3 -2 -2 -17 2 -33 10 -27 15 -58
77 -78 162 -11 44 -14 115 -5 120 14 9 41 -7 36 -21 -3 -8 0 -14 6 -14 6 0 8
-3 5 -7 -4 -3 -3 -11 2 -17 4 -6 14 -32 21 -58 16 -59 58 -108 96 -112 31 -3
112 32 133 58 7 9 17 13 22 10 5 -3 8 -2 7 3 -1 4 6 22 15 40 19 36 22 108 7
149 -6 15 -33 52 -61 82 -71 78 -77 89 -83 161 -4 35 -8 74 -11 87 -3 13 -7
35 -10 49 -7 34 -21 31 -41 -6 -11 -23 -21 -30 -35 -26 -10 3 -17 1 -13 -4 7
-12 -10 -11 -40 2 -22 10 -23 13 -10 27 11 11 18 12 27 3 6 -6 15 -11 20 -11
5 0 -1 8 -14 19 -21 17 -22 22 -12 55 15 50 -2 36 -23 -20 -25 -66 -41 -41
-19 31 12 38 21 52 26 43 5 -7 9 -8 9 -2 0 24 -29 44 -85 59 -94 24 -189 28
-340 15 -77 -7 -153 -12 -170 -12 -35 2 -185 -66 -185 -84 0 -6 -16 -24 -36
-39 -34 -26 -94 -100 -94 -116 0 -8 109 -24 153 -22 15 1 27 -3 27 -10 0 -8 3
-8 12 1 16 16 58 15 58 0 0 -9 3 -9 8 -2 4 5 16 11 27 11 11 0 80 1 153 3 73
1 154 8 180 14 46 12 163 8 178 -6 3 -4 7 -18 8 -31 0 -14 4 -23 9 -20 4 2 8
-8 9 -24 2 -40 6 -68 19 -145 10 -54 10 -70 -1 -83 -27 -33 -141 -70 -245 -81
-104 -10 -402 -6 -449 7 -23 6 -62 13 -88 15 -26 1 -56 7 -66 13 -18 10 -20 5
-25 -77 -7 -94 8 -193 36 -236 15 -22 72 -45 83 -33 3 3 -7 22 -21 43 -14 21
-23 44 -20 52 3 7 5 18 5 24 0 6 7 7 18 3 41 -18 100 -23 145 -13 38 8 53 17
70 44 27 42 47 43 76 3 34 -46 76 -59 183 -58 106 0 156 16 212 66 20 17 36
28 36 25 1 -4 7 4 15 18 8 14 15 21 15 15 0 -5 5 -3 11 5 9 13 10 13 8 0 -2
-16 6 -43 22 -72 5 -10 5 -19 0 -22 -7 -5 -14 -30 -23 -93 -1 -6 -8 -9 -16 -5
-9 3 -13 1 -9 -4 9 -15 -103 -63 -189 -80 -45 -10 -135 -17 -210 -18 -98 0
-130 -4 -127 -13 3 -6 12 -9 21 -7 14 5 14 4 -1 -6 -9 -6 -28 -33 -42 -60 -16
-32 -30 -47 -42 -46 -13 1 -18 -6 -19 -24 -2 -44 -4 -45 -29 -15 -28 33 -36
14 -10 -23 16 -21 16 -21 -12 -7 -15 7 -46 18 -68 24 -64 17 -70 24 -55 60 7
18 10 34 7 37 -10 10 -27 -6 -41 -40 l-14 -33 -94 -6 c-62 -3 -120 -14 -171
-31 -43 -14 -80 -26 -82 -26 -3 0 -5 180 -5 400 l0 400 59 0 59 0 6 68 c17
199 17 203 37 215 17 11 19 24 19 129 0 64 -4 119 -9 122 -4 3 -12 45 -16 93
-4 49 -8 104 -10 124 -2 20 -8 46 -14 57 -6 12 -11 50 -11 85 0 72 -14 122
-41 153 -12 12 -19 35 -19 60 0 33 -7 47 -45 87 -35 37 -44 53 -39 71 3 13 -2
46 -11 75 -14 41 -23 53 -44 58 -14 3 -46 15 -71 26 -71 31 -106 37 -256 46
-128 8 -144 11 -164 31 -22 22 -23 23 -4 38 10 8 35 22 54 31 43 20 110 70
110 83 0 5 15 24 33 42 21 20 39 52 47 82 14 53 38 99 81 155 41 53 82 172 84
249 3 77 -8 140 -27 151 -9 5 -12 21 -9 51 2 24 5 66 5 95 1 28 5 51 10 50 5
-1 19 25 32 58 18 49 23 81 23 172 1 61 -3 114 -8 117 -13 8 -19 -25 -27 -144
-8 -127 -17 -150 -38 -99 -16 37 -39 63 -49 53 -3 -3 -15 0 -27 6 -20 11 -27
8 -60 -25 -45 -44 -108 -57 -185 -39 -27 7 -106 15 -175 18 -119 6 -289 28
-310 41 -26 16 -72 18 -285 11 -195 -6 -328 14 -401 61 -52 33 -71 209 -35
319 27 80 70 173 70 152 1 -17 3 -17 36 -1 19 9 32 20 29 24 -5 9 49 25 131
39 33 5 116 18 185 30 93 15 134 18 159 10 24 -6 39 -6 47 1 7 6 22 8 33 4 28
-9 45 3 31 20 -8 10 -1 14 35 19 37 6 51 3 74 -13 16 -12 36 -21 45 -21 9 0
16 -4 16 -10 0 -13 38 -32 51 -25 7 5 6 11 -2 21 -9 11 -7 14 10 14 11 0 21 4
21 9 0 16 48 6 70 -14 11 -10 20 -24 20 -32 0 -18 17 -16 28 3 10 18 84 24 89
7 2 -6 12 -9 22 -6 9 2 23 -3 30 -11 19 -22 30 -20 41 9 12 33 36 32 54 -2 8
-16 37 -46 65 -68 27 -22 55 -52 61 -67 15 -33 46 -62 58 -54 20 12 48 -28 49
-69 0 -68 15 -146 27 -142 13 4 10 82 -5 140 -14 54 -20 157 -9 157 5 0 14
-10 21 -22 6 -13 30 -42 52 -65 33 -34 49 -43 86 -48 70 -9 104 -31 144 -93
37 -58 91 -115 137 -145 14 -9 36 -38 50 -64 32 -61 67 -85 129 -91 63 -6 101
9 142 56 29 32 31 40 26 84 -12 102 -77 162 -191 177 -43 5 -50 10 -70 46 -12
22 -41 74 -65 115 -25 41 -61 113 -81 160 -65 151 -104 221 -160 288 -77 92
-153 137 -289 172 -92 23 -117 34 -158 68 -41 34 -62 43 -144 61 -90 19 -109
20 -335 10 -131 -6 -258 -7 -281 -4 -29 4 -51 1 -73 -10 -42 -22 -143 -123
-165 -164 -9 -19 -43 -66 -74 -105 -58 -71 -122 -171 -139 -217 -18 -47 -55
-124 -67 -139 -17 -22 -82 -187 -94 -240 -15 -65 -13 -125 5 -192 17 -58 16
-60 -5 -97 -37 -66 -28 -331 13 -381 7 -8 18 -35 25 -60 7 -25 19 -57 27 -72
8 -14 14 -33 14 -41 0 -8 11 -26 25 -41 54 -58 65 -96 65 -220 0 -98 -3 -121
-20 -148 -11 -18 -20 -45 -20 -59 0 -14 -11 -41 -25 -60 -16 -20 -24 -42 -21
-54 6 -25 -19 -56 -66 -80 -21 -11 -38 -23 -38 -27 0 -13 -63 -48 -85 -48 -11
0 -40 -10 -65 -22 -25 -12 -48 -22 -52 -22 -16 -2 -17 -14 -3 -26 13 -11 23
-11 49 -2 18 7 43 12 57 12 13 0 33 6 44 14 28 19 105 25 105 9 0 -7 6 -13 13
-13 6 0 24 -19 39 -43 15 -23 49 -66 75 -94 l49 -53 271 0 c252 0 360 8 388
30 11 8 57 18 120 26 22 3 47 8 55 11 8 3 30 7 49 10 40 5 101 64 110 108 l7
30 84 3 c67 2 105 -3 180 -23 52 -14 107 -29 123 -33 32 -8 97 -85 97 -116 0
-26 29 -106 47 -127 7 -8 13 -29 13 -46 0 -17 7 -36 15 -43 17 -14 28 -51 55
-180 11 -52 24 -112 29 -134 5 -21 7 -53 4 -70 -3 -21 0 -38 10 -47 30 -31 24
-226 -14 -414 -5 -27 -11 -72 -12 -100 l-3 -50 -56 -3 c-45 -2 -60 1 -75 16
-10 10 -26 22 -35 25 -14 5 -18 17 -18 50 0 24 5 48 10 53 6 6 12 28 14 50 1
22 8 50 15 62 8 15 11 80 9 208 -3 159 -5 188 -19 197 -9 6 -24 7 -33 4 -14
-6 -16 -33 -16 -246 0 -149 -4 -242 -10 -246 -5 -3 -10 -15 -10 -27 0 -11 -10
-34 -23 -51 -16 -24 -24 -53 -29 -117 -4 -47 -13 -112 -19 -145 -16 -79 -22
-565 -7 -582 14 -18 47 -16 54 2 12 31 24 1 24 -60 0 -35 5 -67 10 -70 6 -3
10 -46 10 -95 0 -49 -4 -92 -10 -95 -5 -3 -10 -14 -10 -24 0 -11 -14 -25 -34
-35 -19 -9 -40 -29 -48 -46 -7 -17 -20 -30 -29 -30 -8 0 -26 -11 -39 -25 -13
-14 -31 -25 -41 -25 -10 0 -21 -4 -24 -10 -4 -6 -111 -10 -288 -10 -157 0
-302 -5 -327 -11 -50 -11 -512 -15 -530 -4 -7 4 -40 7 -73 7 -82 -1 -300 17
-309 26 -7 9 -17 94 -24 227 -7 124 -35 212 -71 221 -39 10 -27 26 42 54 17 7
38 16 47 21 10 5 25 9 33 9 8 0 22 17 31 37 9 22 36 55 66 78 27 22 56 52 64
67 11 21 22 28 44 28 19 0 34 7 42 20 8 12 24 20 41 20 36 0 117 73 117 105 0
18 12 27 63 45 34 13 69 31 78 41 9 11 21 19 27 19 6 0 15 6 19 14 4 7 23 17
41 21 29 6 32 5 32 -19 0 -14 11 -37 23 -52 l24 -27 119 12 c192 20 306 39
321 54 11 11 22 83 23 163 0 13 8 24 20 27 14 4 20 14 20 35 0 17 5 34 10 37
5 3 10 33 10 66 0 33 4 59 10 59 35 0 -15 64 -78 100 -11 5 -15 62 -18 246 -5
265 -8 297 -29 314 -7 6 -93 31 -190 56 -246 62 -230 80 -241 -251 -4 -110 -8
-225 -10 -255 -1 -30 -3 -70 -3 -87 -1 -25 -5 -33 -20 -33 -26 0 -44 -25 -44
-61 0 -25 -5 -31 -29 -36 -15 -3 -28 -11 -28 -19 0 -7 -9 -16 -20 -19 -11 -3
-24 -15 -30 -25 -5 -10 -18 -17 -27 -15 -10 1 -24 -3 -32 -9 -8 -6 -37 -16
-65 -22 -28 -6 -64 -16 -81 -22 -88 -33 -245 -82 -259 -82 -9 0 -19 -6 -22
-14 -3 -8 -27 -23 -53 -35 -26 -11 -54 -27 -61 -36 -15 -18 -80 -20 -81 -2 -1
6 0 24 1 39 1 20 -9 39 -34 65 -30 31 -36 44 -34 73 3 33 5 35 38 35 34 0 35
1 42 54 5 34 4 58 -2 66 -15 17 -30 100 -41 215 -15 162 -22 189 -51 190 -5 0
-8 -67 -8 -150 0 -136 6 -194 30 -271 15 -53 10 -54 -237 -53 -187 0 -356 12
-368 26 -2 2 -6 73 -9 159 -5 132 -4 158 9 169 8 7 15 21 15 31 0 10 6 22 14
26 18 11 48 71 41 83 -3 5 -1 53 4 107 7 69 14 99 26 105 8 5 15 22 15 37 0
15 9 36 20 46 11 10 20 26 20 36 0 26 47 105 60 101 18 -4 110 68 110 86 0 30
48 72 81 72 20 0 39 10 59 30 16 16 36 30 45 30 8 0 15 4 15 10 0 5 16 17 35
26 27 13 35 22 35 43 -1 62 -37 61 -100 -4 -19 -19 -40 -35 -47 -35 -7 0 -13
-4 -13 -10 0 -5 -7 -10 -15 -10 -8 0 -15 -5 -15 -11 0 -6 -7 -8 -16 -5 -9 4
-23 1 -30 -5 -12 -10 -14 145 -16 1007 -1 561 -1 1162 1 1337 l4 317 -42 0
-41 0 0 -1340z m2929 324 c74 -43 91 -62 91 -107 0 -31 -7 -45 -30 -67 -41
-38 -78 -45 -124 -24 -65 32 -96 133 -59 195 22 37 60 38 122 3z m-2099 -209
c88 -25 127 -29 320 -31 107 0 204 -4 215 -7 11 -3 34 -6 50 -7 l30 -2 -32 -9
c-33 -9 -50 -26 -39 -36 10 -10 207 -3 225 8 11 7 60 7 156 -1 77 -6 172 -14
210 -17 45 -3 73 -10 78 -19 8 -15 57 -20 57 -6 0 4 -5 13 -12 20 -8 8 -5 14
15 23 15 7 27 16 27 21 0 5 -9 4 -20 -2 -28 -15 -25 -4 5 16 23 15 25 14 63
-23 35 -34 39 -42 36 -78 -6 -58 -6 -82 -3 -270 4 -198 -3 -238 -47 -284 -18
-19 -35 -50 -39 -68 -3 -18 -12 -33 -19 -33 -22 0 -36 -24 -42 -76 -8 -54 -55
-134 -85 -141 -11 -3 -19 -9 -19 -14 0 -5 -12 -15 -27 -21 -16 -7 -40 -23 -55
-36 -25 -23 -33 -24 -139 -23 -102 2 -117 5 -170 31 -32 16 -60 34 -64 40 -4
6 -27 21 -53 35 -52 27 -122 86 -122 102 0 6 -7 14 -16 17 -44 17 -162 122
-179 160 -8 17 -19 38 -24 46 -16 27 -31 109 -31 170 0 35 -5 62 -12 66 -6 4
-14 2 -16 -4 -2 -6 -10 -8 -18 -5 -10 4 -14 -3 -14 -23 -1 -16 -3 -46 -6 -67
-4 -29 1 -50 21 -89 50 -96 54 -117 46 -235 -5 -59 -5 -114 -1 -122 14 -25 44
37 48 100 l4 58 57 -39 c62 -42 121 -96 121 -110 0 -11 70 -52 91 -54 17 -1
73 -55 82 -79 3 -7 24 -19 48 -26 24 -7 52 -17 61 -22 10 -5 44 -9 77 -9 55 0
61 -2 85 -32 14 -18 35 -42 46 -53 23 -23 27 -55 7 -55 -8 0 -24 -11 -37 -25
-17 -18 -34 -25 -61 -25 -21 0 -40 -4 -43 -9 -6 -10 -42 -17 -153 -30 -40 -5
-78 -13 -85 -18 -28 -18 -376 -39 -391 -24 -6 6 -27 11 -47 11 -46 0 -86 19
-99 48 -6 12 -17 22 -26 22 -9 0 -15 9 -15 21 0 14 -10 24 -30 32 -22 8 -30
18 -30 36 0 13 -7 33 -16 42 -15 17 -15 21 0 52 8 19 22 40 31 47 8 7 15 18
15 26 0 7 6 17 14 21 20 12 36 48 36 80 0 16 9 48 20 71 17 36 20 58 17 169
-3 135 -20 196 -66 242 -30 30 -49 63 -55 92 -2 15 -9 35 -14 45 -36 65 -49
207 -32 331 10 72 15 83 29 78 9 -4 36 -13 61 -20z m-750 -1465 c0 -5 -5 -10
-11 -10 -5 0 -7 5 -4 10 3 6 8 10 11 10 2 0 4 -4 4 -10z m1229 -372 c0 -27 -2
-29 -8 -13 -5 11 -6 26 -4 33 8 21 13 13 12 -20z m10 -128 c0 -30 -2 -40 -8
-31 -6 9 -10 -23 -11 -85 -1 -54 -5 -166 -10 -249 -6 -110 -7 -72 -3 145 3
162 8 299 11 305 9 14 20 -32 21 -85z m236 -559 c111 -4 158 -9 136 -13 -18
-5 -50 -8 -70 -8 -42 0 -67 -13 -56 -30 4 -7 27 -11 59 -9 94 5 116 1 116 -21
0 -29 -35 -43 -90 -36 -51 7 -105 -7 -95 -24 3 -5 42 -10 87 -10 72 0 79 -2
68 -16 -25 -29 -50 -36 -81 -24 -25 11 -32 10 -48 -4 -16 -15 -36 -16 -149
-12 -81 4 -133 2 -137 -4 -3 -6 -17 -10 -31 -10 -19 0 -24 -5 -24 -25 0 -16
-6 -25 -15 -25 -9 0 -24 -13 -33 -30 -9 -16 -25 -30 -34 -30 -17 0 -124 -53
-143 -71 -5 -5 -19 -9 -31 -9 -14 0 -25 -8 -29 -20 -3 -11 -12 -20 -20 -20 -7
0 -37 -22 -67 -49 -29 -26 -67 -55 -85 -64 -17 -9 -35 -26 -38 -37 -4 -14 -12
-19 -24 -15 -10 3 -25 -3 -37 -16 -10 -11 -39 -40 -63 -63 -25 -25 -44 -53
-45 -67 -1 -20 -7 -25 -36 -27 -20 -2 -40 -12 -48 -23 -7 -10 -22 -19 -32 -19
-11 0 -25 -9 -32 -20 -7 -11 -23 -20 -35 -20 -12 0 -34 -5 -50 -11 -37 -14
-222 -14 -236 0 -6 6 -35 11 -65 11 -43 0 -53 3 -49 14 7 18 -29 66 -48 66
-10 0 -15 22 -19 78 -15 218 -31 323 -58 368 -16 27 -18 49 -16 135 l3 104
192 3 c187 2 192 2 203 -19 7 -11 14 -33 16 -47 3 -15 13 -36 23 -47 10 -11
22 -33 25 -50 19 -80 19 -87 -3 -116 -21 -28 -26 -46 -23 -81 2 -19 29 -14 47
8 6 6 27 15 48 18 28 5 40 14 47 31 6 15 20 27 37 30 15 4 36 11 46 16 10 5
22 7 28 3 6 -3 31 10 56 30 30 24 53 34 65 30 10 -3 18 -1 18 5 0 15 48 37 93
44 20 3 49 15 64 26 14 12 36 21 48 21 12 0 48 9 80 19 33 11 63 17 67 14 5
-2 20 2 33 11 13 9 31 16 38 16 8 0 22 9 32 20 16 18 73 48 118 63 20 7 23 32
5 44 -17 10 80 34 107 25 11 -3 97 -8 190 -11z m780 -171 c3 -5 17 -10 31 -10
l24 0 0 -424 c0 -408 -1 -425 -20 -447 l-20 -24 3 43 c2 26 -2 47 -10 53 -8 7
-13 34 -13 74 0 79 -6 95 -36 95 l-24 0 1 243 c0 238 11 343 36 368 6 6 9 18
6 25 -6 16 13 19 22 4z m-1058 -122 c-3 -7 -5 -2 -5 12 0 14 2 19 5 13 2 -7 2
-19 0 -25z m2245 -123 c-7 -37 -22 -41 -22 -6 0 20 5 31 14 31 9 0 12 -8 8
-25z m-695 -22 c-3 -10 -5 -4 -5 12 0 17 2 24 5 18 2 -7 2 -21 0 -30z m503 -7
c0 -7 -46 -56 -53 -56 -9 0 -2 27 12 44 12 14 41 23 41 12z m-479 -133 c-8
-15 -10 -15 -11 -2 0 17 10 32 18 25 2 -3 -1 -13 -7 -23z m955 -88 c-3 -8 -1
-15 5 -15 6 0 17 7 25 15 9 8 20 15 25 15 15 0 10 -17 -6 -24 -17 -6 -21 -36
-5 -36 6 0 10 -5 10 -10 0 -6 -11 -8 -25 -4 -20 5 -25 2 -25 -13 0 -10 7 -29
16 -42 29 -41 13 -99 -40 -147 -35 -32 -42 -44 -33 -54 10 -10 8 -10 -8 -2
-24 12 -77 4 -68 -11 3 -6 1 -7 -5 -3 -7 4 -18 4 -24 -1 -20 -12 -77 -13 -84
-2 -3 6 3 17 15 25 12 8 21 22 21 30 0 41 -86 19 -96 -25 -3 -14 -15 -43 -26
-64 -16 -30 -18 -44 -10 -62 15 -33 47 -38 63 -9 7 13 17 24 23 24 6 0 5 4 -3
9 -17 11 -27 96 -12 105 7 5 11 -2 11 -18 0 -14 5 -28 10 -31 6 -3 10 -14 10
-24 0 -22 40 -36 53 -18 6 8 7 6 3 -6 -5 -16 -1 -18 31 -15 37 3 38 2 45 -37
12 -67 9 -134 -7 -166 -9 -16 -20 -27 -25 -24 -4 3 -15 -8 -23 -25 -14 -27
-14 -30 1 -30 14 0 14 -2 3 -9 -11 -7 -10 -10 5 -15 10 -3 1 -3 -21 -1 -26 3
-45 12 -57 27 -33 44 -59 107 -67 165 -7 44 -9 50 -10 23 l-2 -35 -14 25 c-13
22 -14 23 -15 5 0 -17 -2 -17 -10 -5 -7 11 -10 11 -10 2 0 -7 7 -23 15 -35 23
-36 29 -95 11 -122 -15 -23 -122 -65 -165 -65 -9 0 -45 27 -79 60 -56 55 -63
66 -68 111 -11 88 31 139 113 139 28 0 32 2 21 14 -7 8 -14 10 -16 5 -2 -5
-13 -9 -23 -9 -11 0 -29 -5 -40 -11 -27 -14 -169 -20 -191 -8 -21 11 -24 34
-5 46 6 4 12 15 12 23 0 9 11 16 27 18 53 6 82 98 38 118 -21 9 -21 9 2 40 13
17 28 32 33 33 6 1 10 11 9 23 -1 18 4 20 38 15 22 -3 42 -7 44 -10 2 -2 -3
-23 -11 -47 -8 -23 -15 -64 -15 -91 0 -49 -19 -81 -65 -107 -11 -6 -15 -12 -8
-12 6 0 25 12 43 26 29 25 32 25 49 10 27 -24 55 -21 48 6 -6 22 8 58 23 58 4
0 14 -16 20 -36 7 -20 27 -68 46 -108 l33 -71 1 45 c0 25 4 60 9 78 25 86 22
150 -13 233 -6 13 6 18 66 28 96 16 158 36 241 77 37 19 75 34 83 34 7 0 14 5
14 10 0 6 5 10 11 10 6 0 9 -7 5 -15z m57 -250 c-3 -9 -8 -14 -10 -11 -3 3 -2
9 2 15 9 16 15 13 8 -4z m-779 -39 c-3 -9 -11 -16 -18 -16 -6 0 -4 -5 4 -10
13 -8 12 -10 -2 -10 -10 0 -18 5 -18 12 0 11 32 48 38 43 1 -1 0 -10 -4 -19z
m886 14 c0 -5 -5 -10 -11 -10 -5 0 -7 5 -4 10 3 6 8 10 11 10 2 0 4 -4 4 -10z
m-81 -87 c-4 -23 3 -33 22 -33 17 0 20 -4 15 -22 -9 -31 -14 -51 -16 -63 0 -5
-8 -1 -16 10 -15 19 -16 18 -10 -15 5 -28 4 -31 -4 -12 -5 12 -18 22 -29 22
-11 0 -23 5 -26 10 -12 19 -53 11 -61 -12 -5 -18 -8 -19 -15 -6 -5 9 -10 38
-11 65 l-3 48 64 -1 c54 -1 60 1 42 11 l-23 12 24 15 c21 14 24 14 36 -3 7
-10 12 -22 11 -26z m-382 -69 c-3 -3 -12 -4 -19 -1 -8 3 -5 6 6 6 11 1 17 -2
13 -5z m-799 -76 c18 -18 14 -46 -7 -58 -25 -13 -48 -4 -56 21 -12 38 35 65
63 37z m-278 -56 c0 -13 -23 -32 -37 -32 -19 0 -27 28 -13 45 9 11 17 12 31 4
10 -5 19 -13 19 -17z m1073 -2 c3 -11 1 -18 -4 -14 -5 3 -9 12 -9 20 0 20 7
17 13 -6z m378 -54 c13 -46 -2 -92 -26 -82 -8 3 -15 1 -15 -4 0 -6 -8 -10 -17
-10 -15 1 -14 4 5 20 13 11 21 24 18 29 -4 5 -2 12 3 15 5 3 7 15 4 26 -3 11
-8 18 -12 16 -4 -3 -5 12 -3 32 4 33 6 34 19 17 7 -11 18 -37 24 -59z m-901
54 c0 -5 -10 -10 -22 -9 -22 0 -22 1 -3 9 11 5 21 9 23 9 1 1 2 -3 2 -9z m-65
-40 c3 -5 1 -10 -4 -10 -6 0 -11 5 -11 10 0 6 2 10 4 10 3 0 8 -4 11 -10z"/>
<path d="M3020 5061 c0 -25 26 -34 50 -18 32 19 24 37 -15 37 -28 0 -35 -4
-35 -19z"/>
<path d="M3355 5029 c-4 -5 0 -18 8 -27 7 -9 17 -25 20 -34 4 -10 13 -18 22
-18 24 0 20 67 -4 80 -25 13 -38 13 -46 -1z"/>
<path d="M3630 4975 c0 -57 12 -70 36 -37 26 34 12 92 -23 92 -9 0 -13 -17
-13 -55z"/>
<path d="M3080 4940 c-5 -9 -7 -34 -6 -56 2 -21 4 -45 5 -51 1 -7 17 -20 37
-28 31 -13 52 -13 128 -4 119 13 123 15 131 47 5 21 1 31 -20 49 -14 13 -37
23 -51 23 -14 0 -35 6 -47 14 -12 8 -55 16 -95 19 -62 4 -74 2 -82 -13z m65
-50 c3 -5 -1 -10 -9 -10 -9 0 -16 5 -16 10 0 6 4 10 9 10 6 0 13 -4 16 -10z"/>
<path d="M3679 4901 c-17 -14 -23 -28 -22 -56 2 -56 7 -59 163 -91 37 -8 57
20 65 92 6 58 6 62 -17 67 -13 4 -55 7 -94 7 -55 0 -77 -4 -95 -19z m76 -51
c4 -6 -5 -10 -20 -10 -15 0 -24 4 -20 10 3 6 12 10 20 10 8 0 17 -4 20 -10z"/>
<path d="M3605 4708 c3 -17 9 -36 14 -41 5 -5 7 -16 4 -23 -3 -8 9 -27 26 -43
17 -16 31 -39 31 -51 0 -31 -28 -80 -46 -80 -10 0 -14 -8 -12 -22 2 -18 11
-24 34 -26 27 -3 35 2 55 35 36 58 41 75 34 119 -5 34 -11 44 -35 54 -16 7
-36 23 -45 36 -9 14 -20 22 -25 19 -5 -3 -7 4 -5 17 4 20 -8 37 -27 38 -3 0
-5 -14 -3 -32z"/>
<path d="M3365 4561 l-50 -6 -3 -41 c-3 -38 0 -43 34 -63 22 -13 49 -21 68
-19 36 3 41 25 11 42 -43 24 -45 41 -5 55 33 11 39 26 14 35 -9 3 -16 5 -17 4
-1 0 -24 -4 -52 -7z"/>
<path d="M3479 4474 c-20 -24 13 -47 47 -32 30 14 31 34 2 42 -32 8 -34 8 -49
-10z"/>
<path d="M3300 4316 c0 -26 98 -48 235 -53 72 -3 137 -9 146 -14 22 -11 43 13
34 40 -9 28 -44 33 -202 30 -78 -2 -145 0 -149 4 -13 13 -64 8 -64 -7z"/>
<path d="M2845 4058 c-11 -7 -29 -14 -40 -15 -20 -4 -85 -60 -85 -75 0 -4 -9
-17 -20 -28 -29 -29 -26 -60 5 -60 18 0 29 8 37 28 15 35 57 75 97 91 25 11
31 19 31 42 0 16 -1 29 -2 29 -2 0 -12 -6 -23 -12z"/>
<path d="M3314 3979 c-7 -12 41 -66 68 -75 31 -9 41 5 22 34 -31 48 -74 67
-90 41z"/>
<path d="M3025 3839 c-4 -6 -3 -14 4 -18 17 -11 82 0 78 13 -5 15 -73 20 -82
5z"/>
<path d="M5538 1884 c-5 -4 -8 -24 -8 -45 0 -21 -4 -41 -10 -44 -15 -9 -32
-45 -21 -45 15 0 53 87 49 116 -2 14 -6 22 -10 18z"/>
<path d="M5426 1722 c22 -26 34 -28 34 -7 0 8 -4 15 -9 15 -5 0 -17 3 -26 7
-16 5 -15 4 1 -15z"/>
<path d="M5655 1540 c3 -5 8 -10 11 -10 2 0 4 5 4 10 0 6 -5 10 -11 10 -5 0
-7 -4 -4 -10z"/>
<path d="M5894 5319 c-3 -6 -1 -16 5 -22 8 -8 11 -5 11 11 0 24 -5 28 -16 11z"/>
<path d="M5685 3060 c-3 -5 -2 -10 4 -10 5 0 13 5 16 10 3 6 2 10 -4 10 -5 0
-13 -4 -16 -10z"/>
<path d="M5745 3060 c-18 -8 -18 -9 -2 -9 10 -1 15 -5 12 -11 -3 -5 -2 -10 3
-10 5 0 12 9 15 20 6 22 2 23 -28 10z"/>
<path d="M4750 3036 c7 -7 13 -7 20 0 6 6 3 10 -10 10 -13 0 -16 -4 -10 -10z"/>
<path d="M5787 3030 c3 -11 7 -20 9 -20 2 0 4 9 4 20 0 11 -4 20 -9 20 -5 0
-7 -9 -4 -20z"/>
<path d="M5792 2965 c0 -16 2 -22 5 -12 2 9 2 23 0 30 -3 6 -5 -1 -5 -18z"/>
<path d="M4511 2514 c0 -11 3 -14 6 -6 3 7 2 16 -1 19 -3 4 -6 -2 -5 -13z"/>
<path d="M4830 2485 c-5 -14 -15 -25 -22 -25 -7 0 -19 -4 -27 -9 -12 -8 -12
-12 2 -26 10 -9 17 -32 17 -52 l0 -35 26 17 c21 14 31 15 51 6 38 -17 45 -14
38 18 -4 20 -1 38 10 54 16 25 16 25 -15 32 -17 4 -36 15 -43 26 -16 26 -26
24 -37 -6z"/>
<path d="M4531 2344 c0 -11 3 -14 6 -6 3 7 2 16 -1 19 -3 4 -6 -2 -5 -13z"/>
<path d="M5765 1430 c-3 -6 1 -7 9 -4 18 7 21 14 7 14 -6 0 -13 -4 -16 -10z"/>
<path d="M3286 514 c-4 -14 -6 -114 -5 -220 l2 -194 23 0 24 0 -2 217 c-3 192
-5 218 -19 221 -11 2 -19 -6 -23 -24z"/>
</g>
</svg>
